<svg xmlns="http://www.w3.org/2000/svg" viewBox="0 -0.5 177 100" shape-rendering="crispEdges">
  <path stroke="#80ff00" d="M14 6h1M15 6h1M16 6h1M17 6h1M18 6h1M14 7h1M15 7h1M16 7h1M17 7h1M18 7h1M19 7h1M20 7h1M21 7h1M14 8h1M15 8h1M16 8h1M17 8h1M18 8h1M19 8h1M20 8h1M21 8h1M22 8h1M23 8h1M14 9h1M15 9h1M16 9h1M17 9h1M18 9h1M19 9h1M20 9h1M21 9h1M22 9h1M23 9h1M24 9h1M25 9h1M14 10h1M15 10h1M16 10h1M17 10h1M18 10h1M19 10h1M20 10h1M21 10h1M22 10h1M23 10h1M24 10h1M25 10h1M14 11h1M15 11h1M16 11h1M17 11h1M20 11h1M21 11h1M22 11h1M23 11h1M24 11h1M25 11h1M26 11h1M27 11h1M14 12h1M15 12h1M16 12h1M17 12h1M22 12h1M23 12h1M24 12h1M25 12h1M26 12h1M27 12h1M14 13h1M15 13h1M16 13h1M17 13h1M24 13h1M25 13h1M26 13h1M27 13h1M28 13h1M14 14h1M15 14h1M16 14h1M17 14h1M24 14h1M25 14h1M26 14h1M27 14h1M28 14h1M14 15h1M15 15h1M16 15h1M17 15h1M25 15h1M26 15h1M27 15h1M28 15h1M29 15h1M30 15h1M14 16h1M15 16h1M16 16h1M17 16h1M25 16h1M26 16h1M27 16h1M28 16h1M29 16h1M30 16h1M14 17h1M15 17h1M16 17h1M17 17h1M27 17h1M28 17h1M29 17h1M30 17h1M70 17h1M71 17h1M14 18h1M15 18h1M16 18h1M17 18h1M27 18h1M28 18h1M29 18h1M30 18h1M31 18h1M38 18h1M39 18h1M69 18h1M70 18h1M71 18h1M72 18h1M14 19h1M15 19h1M16 19h1M17 19h1M28 19h1M29 19h1M30 19h1M31 19h1M37 19h1M38 19h1M39 19h1M40 19h1M68 19h1M69 19h1M70 19h1M71 19h1M72 19h1M73 19h1M83 19h1M84 19h1M85 19h1M86 19h1M14 20h1M15 20h1M16 20h1M17 20h1M28 20h1M29 20h1M30 20h1M31 20h1M36 20h1M37 20h1M38 20h1M39 20h1M40 20h1M41 20h1M68 20h1M69 20h1M70 20h1M71 20h1M72 20h1M73 20h1M83 20h1M84 20h1M85 20h1M86 20h1M14 21h1M15 21h1M16 21h1M17 21h1M28 21h1M29 21h1M30 21h1M31 21h1M32 21h1M36 21h1M37 21h1M38 21h1M39 21h1M40 21h1M41 21h1M69 21h1M70 21h1M71 21h1M72 21h1M83 21h1M84 21h1M85 21h1M86 21h1M14 22h1M15 22h1M16 22h1M17 22h1M29 22h1M30 22h1M31 22h1M32 22h1M37 22h1M38 22h1M39 22h1M40 22h1M70 22h1M71 22h1M83 22h1M84 22h1M85 22h1M86 22h1M14 23h1M15 23h1M16 23h1M17 23h1M29 23h1M30 23h1M31 23h1M32 23h1M38 23h1M39 23h1M82 23h1M83 23h1M84 23h1M85 23h1M86 23h1M14 24h1M15 24h1M16 24h1M17 24h1M29 24h1M30 24h1M31 24h1M32 24h1M82 24h1M83 24h1M84 24h1M85 24h1M86 24h1M87 24h1M88 24h1M89 24h1M90 24h1M91 24h1M92 24h1M93 24h1M14 25h1M15 25h1M16 25h1M17 25h1M29 25h1M30 25h1M31 25h1M32 25h1M79 25h1M80 25h1M81 25h1M82 25h1M83 25h1M84 25h1M85 25h1M86 25h1M87 25h1M88 25h1M89 25h1M90 25h1M91 25h1M92 25h1M93 25h1M14 26h1M15 26h1M16 26h1M17 26h1M29 26h1M30 26h1M31 26h1M32 26h1M57 26h1M58 26h1M59 26h1M60 26h1M68 26h1M69 26h1M70 26h1M71 26h1M77 26h1M78 26h1M79 26h1M80 26h1M81 26h1M82 26h1M83 26h1M84 26h1M85 26h1M86 26h1M87 26h1M88 26h1M89 26h1M90 26h1M91 26h1M92 26h1M93 26h1M14 27h1M15 27h1M16 27h1M17 27h1M29 27h1M30 27h1M31 27h1M32 27h1M36 27h1M37 27h1M38 27h1M39 27h1M51 27h1M52 27h1M53 27h1M54 27h1M55 27h1M56 27h1M57 27h1M58 27h1M59 27h1M60 27h1M68 27h1M69 27h1M70 27h1M71 27h1M77 27h1M78 27h1M79 27h1M80 27h1M81 27h1M82 27h1M83 27h1M84 27h1M85 27h1M86 27h1M87 27h1M88 27h1M89 27h1M90 27h1M91 27h1M92 27h1M93 27h1M14 28h1M15 28h1M16 28h1M17 28h1M29 28h1M30 28h1M31 28h1M32 28h1M36 28h1M37 28h1M38 28h1M39 28h1M49 28h1M50 28h1M51 28h1M52 28h1M53 28h1M54 28h1M55 28h1M56 28h1M57 28h1M58 28h1M59 28h1M60 28h1M68 28h1M69 28h1M70 28h1M71 28h1M77 28h1M78 28h1M79 28h1M80 28h1M81 28h1M82 28h1M83 28h1M84 28h1M85 28h1M86 28h1M87 28h1M88 28h1M14 29h1M15 29h1M16 29h1M17 29h1M29 29h1M30 29h1M31 29h1M32 29h1M36 29h1M37 29h1M38 29h1M39 29h1M48 29h1M49 29h1M50 29h1M51 29h1M52 29h1M53 29h1M54 29h1M55 29h1M56 29h1M57 29h1M58 29h1M59 29h1M60 29h1M68 29h1M69 29h1M70 29h1M71 29h1M77 29h1M78 29h1M79 29h1M80 29h1M81 29h1M82 29h1M83 29h1M84 29h1M85 29h1M14 30h1M15 30h1M16 30h1M17 30h1M29 30h1M30 30h1M31 30h1M32 30h1M36 30h1M37 30h1M38 30h1M39 30h1M48 30h1M49 30h1M50 30h1M51 30h1M52 30h1M53 30h1M54 30h1M55 30h1M56 30h1M57 30h1M58 30h1M59 30h1M60 30h1M61 30h1M68 30h1M69 30h1M70 30h1M71 30h1M81 30h1M82 30h1M83 30h1M84 30h1M85 30h1M14 31h1M15 31h1M16 31h1M17 31h1M29 31h1M30 31h1M31 31h1M32 31h1M36 31h1M37 31h1M38 31h1M39 31h1M48 31h1M49 31h1M50 31h1M51 31h1M52 31h1M53 31h1M54 31h1M57 31h1M58 31h1M59 31h1M60 31h1M61 31h1M67 31h1M68 31h1M69 31h1M70 31h1M71 31h1M81 31h1M82 31h1M83 31h1M84 31h1M14 32h1M15 32h1M16 32h1M17 32h1M29 32h1M30 32h1M31 32h1M32 32h1M35 32h1M36 32h1M37 32h1M38 32h1M39 32h1M47 32h1M48 32h1M49 32h1M50 32h1M51 32h1M52 32h1M57 32h1M58 32h1M59 32h1M60 32h1M61 32h1M67 32h1M68 32h1M69 32h1M70 32h1M71 32h1M81 32h1M82 32h1M83 32h1M84 32h1M14 33h1M15 33h1M16 33h1M17 33h1M28 33h1M29 33h1M30 33h1M31 33h1M32 33h1M35 33h1M36 33h1M37 33h1M38 33h1M39 33h1M47 33h1M48 33h1M49 33h1M50 33h1M51 33h1M58 33h1M59 33h1M60 33h1M61 33h1M62 33h1M67 33h1M68 33h1M69 33h1M70 33h1M71 33h1M80 33h1M81 33h1M82 33h1M83 33h1M84 33h1M14 34h1M15 34h1M16 34h1M17 34h1M28 34h1M29 34h1M30 34h1M31 34h1M35 34h1M36 34h1M37 34h1M38 34h1M39 34h1M47 34h1M48 34h1M49 34h1M50 34h1M51 34h1M58 34h1M59 34h1M60 34h1M61 34h1M62 34h1M67 34h1M68 34h1M69 34h1M70 34h1M80 34h1M81 34h1M82 34h1M83 34h1M84 34h1M14 35h1M15 35h1M16 35h1M17 35h1M28 35h1M29 35h1M30 35h1M31 35h1M35 35h1M36 35h1M37 35h1M38 35h1M47 35h1M48 35h1M49 35h1M50 35h1M58 35h1M59 35h1M60 35h1M61 35h1M62 35h1M67 35h1M68 35h1M69 35h1M70 35h1M80 35h1M81 35h1M82 35h1M83 35h1M84 35h1M14 36h1M15 36h1M16 36h1M17 36h1M27 36h1M28 36h1M29 36h1M30 36h1M31 36h1M35 36h1M36 36h1M37 36h1M38 36h1M47 36h1M48 36h1M49 36h1M50 36h1M58 36h1M59 36h1M60 36h1M61 36h1M62 36h1M67 36h1M68 36h1M69 36h1M70 36h1M80 36h1M81 36h1M82 36h1M83 36h1M14 37h1M15 37h1M16 37h1M17 37h1M27 37h1M28 37h1M29 37h1M30 37h1M35 37h1M36 37h1M37 37h1M38 37h1M47 37h1M48 37h1M49 37h1M50 37h1M59 37h1M60 37h1M61 37h1M62 37h1M67 37h1M68 37h1M69 37h1M70 37h1M80 37h1M81 37h1M82 37h1M83 37h1M14 38h1M15 38h1M16 38h1M17 38h1M25 38h1M26 38h1M27 38h1M28 38h1M29 38h1M30 38h1M35 38h1M36 38h1M37 38h1M38 38h1M47 38h1M48 38h1M49 38h1M50 38h1M51 38h1M57 38h1M58 38h1M59 38h1M60 38h1M61 38h1M62 38h1M67 38h1M68 38h1M69 38h1M70 38h1M80 38h1M81 38h1M82 38h1M83 38h1M14 39h1M15 39h1M16 39h1M17 39h1M25 39h1M26 39h1M27 39h1M28 39h1M29 39h1M30 39h1M35 39h1M36 39h1M37 39h1M38 39h1M47 39h1M48 39h1M49 39h1M50 39h1M51 39h1M55 39h1M56 39h1M57 39h1M58 39h1M59 39h1M60 39h1M61 39h1M62 39h1M67 39h1M68 39h1M69 39h1M70 39h1M71 39h1M80 39h1M81 39h1M82 39h1M83 39h1M84 39h1M14 40h1M15 40h1M16 40h1M17 40h1M23 40h1M24 40h1M25 40h1M26 40h1M27 40h1M28 40h1M35 40h1M36 40h1M37 40h1M38 40h1M39 40h1M47 40h1M48 40h1M49 40h1M50 40h1M51 40h1M52 40h1M53 40h1M54 40h1M55 40h1M56 40h1M57 40h1M58 40h1M59 40h1M60 40h1M61 40h1M62 40h1M67 40h1M68 40h1M69 40h1M70 40h1M71 40h1M72 40h1M73 40h1M74 40h1M75 40h1M80 40h1M81 40h1M82 40h1M83 40h1M84 40h1M86 40h1M87 40h1M88 40h1M89 40h1M14 41h1M15 41h1M16 41h1M17 41h1M21 41h1M22 41h1M23 41h1M24 41h1M25 41h1M26 41h1M27 41h1M28 41h1M35 41h1M36 41h1M37 41h1M38 41h1M39 41h1M40 41h1M41 41h1M42 41h1M43 41h1M47 41h1M48 41h1M49 41h1M50 41h1M51 41h1M52 41h1M53 41h1M54 41h1M55 41h1M56 41h1M57 41h1M58 41h1M59 41h1M60 41h1M61 41h1M62 41h1M67 41h1M68 41h1M69 41h1M70 41h1M71 41h1M72 41h1M73 41h1M74 41h1M75 41h1M80 41h1M81 41h1M82 41h1M83 41h1M84 41h1M85 41h1M86 41h1M87 41h1M88 41h1M89 41h1M14 42h1M15 42h1M16 42h1M17 42h1M21 42h1M22 42h1M23 42h1M24 42h1M25 42h1M26 42h1M35 42h1M36 42h1M37 42h1M38 42h1M39 42h1M40 42h1M41 42h1M42 42h1M43 42h1M48 42h1M49 42h1M50 42h1M51 42h1M52 42h1M53 42h1M54 42h1M55 42h1M56 42h1M57 42h1M58 42h1M59 42h1M60 42h1M61 42h1M62 42h1M67 42h1M68 42h1M69 42h1M70 42h1M71 42h1M72 42h1M73 42h1M74 42h1M75 42h1M80 42h1M81 42h1M82 42h1M83 42h1M84 42h1M85 42h1M86 42h1M87 42h1M88 42h1M89 42h1M14 43h1M15 43h1M16 43h1M17 43h1M20 43h1M21 43h1M22 43h1M23 43h1M24 43h1M25 43h1M26 43h1M35 43h1M36 43h1M37 43h1M38 43h1M39 43h1M40 43h1M41 43h1M42 43h1M43 43h1M48 43h1M49 43h1M50 43h1M51 43h1M52 43h1M53 43h1M54 43h1M55 43h1M56 43h1M57 43h1M58 43h1M59 43h1M60 43h1M61 43h1M62 43h1M68 43h1M69 43h1M70 43h1M71 43h1M72 43h1M73 43h1M74 43h1M75 43h1M81 43h1M82 43h1M83 43h1M84 43h1M85 43h1M86 43h1M87 43h1M88 43h1M89 43h1M14 44h1M15 44h1M16 44h1M17 44h1M18 44h1M19 44h1M20 44h1M21 44h1M22 44h1M23 44h1M24 44h1M36 44h1M37 44h1M38 44h1M39 44h1M40 44h1M41 44h1M42 44h1M43 44h1M58 44h1M59 44h1M60 44h1M61 44h1M62 44h1M68 44h1M69 44h1M70 44h1M71 44h1M72 44h1M73 44h1M74 44h1M82 44h1M83 44h1M84 44h1M85 44h1M86 44h1M87 44h1M88 44h1M14 45h1M15 45h1M16 45h1M17 45h1M18 45h1M19 45h1M20 45h1M21 45h1M22 45h1M23 45h1M36 45h1M37 45h1M38 45h1M39 45h1M40 45h1M41 45h1M42 45h1M58 45h1M59 45h1M60 45h1M61 45h1M62 45h1M14 46h1M15 46h1M16 46h1M17 46h1M18 46h1M19 46h1M20 46h1M21 46h1M22 46h1M58 46h1M59 46h1M60 46h1M61 46h1M62 46h1M135 46h1M136 46h1M137 46h1M138 46h1M139 46h1M140 46h1M141 46h1M142 46h1M143 46h1M14 47h1M15 47h1M16 47h1M17 47h1M18 47h1M19 47h1M20 47h1M21 47h1M57 47h1M58 47h1M59 47h1M60 47h1M61 47h1M62 47h1M134 47h1M135 47h1M137 47h1M138 47h1M139 47h1M140 47h1M141 47h1M142 47h1M143 47h1M44 48h1M45 48h1M46 48h1M47 48h1M48 48h1M56 48h1M57 48h1M58 48h1M59 48h1M60 48h1M61 48h1M134 48h1M135 48h1M137 48h1M138 48h1M139 48h1M140 48h1M141 48h1M142 48h1M143 48h1M44 49h1M45 49h1M46 49h1M47 49h1M48 49h1M55 49h1M56 49h1M57 49h1M58 49h1M59 49h1M60 49h1M61 49h1M134 49h1M135 49h1M44 50h1M45 50h1M46 50h1M47 50h1M48 50h1M53 50h1M54 50h1M55 50h1M56 50h1M57 50h1M58 50h1M59 50h1M60 50h1M61 50h1M134 50h1M135 50h1M44 51h1M45 51h1M46 51h1M47 51h1M48 51h1M49 51h1M50 51h1M51 51h1M52 51h1M53 51h1M54 51h1M55 51h1M56 51h1M57 51h1M58 51h1M59 51h1M60 51h1M134 51h1M135 51h1M136 51h1M137 51h1M138 51h1M139 51h1M140 51h1M141 51h1M142 51h1M143 51h1M144 51h1M44 52h1M45 52h1M46 52h1M47 52h1M48 52h1M49 52h1M50 52h1M51 52h1M52 52h1M53 52h1M54 52h1M55 52h1M56 52h1M57 52h1M58 52h1M59 52h1M135 52h1M136 52h1M137 52h1M138 52h1M139 52h1M140 52h1M141 52h1M142 52h1M143 52h1M44 53h1M45 53h1M46 53h1M47 53h1M48 53h1M49 53h1M50 53h1M51 53h1M52 53h1M53 53h1M54 53h1M55 53h1M56 53h1M57 53h1M58 53h1M138 53h1M140 53h1M44 54h1M45 54h1M46 54h1M47 54h1M48 54h1M49 54h1M50 54h1M51 54h1M52 54h1M53 54h1M54 54h1M55 54h1M138 54h1M140 54h1M138 55h1M140 55h1M138 56h1M140 56h1M138 57h1M140 57h1M23 58h1M24 58h1M25 58h1M26 58h1M41 58h1M42 58h1M43 58h1M44 58h1M76 58h1M77 58h1M78 58h1M79 58h1M93 58h1M94 58h1M95 58h1M96 58h1M97 58h1M136 58h1M137 58h1M138 58h1M140 58h1M141 58h1M142 58h1M23 59h1M24 59h1M25 59h1M26 59h1M27 59h1M28 59h1M41 59h1M42 59h1M43 59h1M44 59h1M58 59h1M59 59h1M60 59h1M61 59h1M76 59h1M77 59h1M78 59h1M79 59h1M93 59h1M94 59h1M95 59h1M96 59h1M97 59h1M23 60h1M24 60h1M25 60h1M26 60h1M27 60h1M28 60h1M29 60h1M41 60h1M42 60h1M43 60h1M44 60h1M58 60h1M59 60h1M60 60h1M61 60h1M76 60h1M77 60h1M78 60h1M79 60h1M93 60h1M94 60h1M95 60h1M96 60h1M97 60h1M23 61h1M24 61h1M25 61h1M26 61h1M27 61h1M28 61h1M29 61h1M41 61h1M42 61h1M43 61h1M44 61h1M58 61h1M59 61h1M60 61h1M61 61h1M76 61h1M77 61h1M78 61h1M79 61h1M93 61h1M94 61h1M95 61h1M96 61h1M97 61h1M23 62h1M24 62h1M25 62h1M26 62h1M27 62h1M28 62h1M29 62h1M30 62h1M41 62h1M42 62h1M43 62h1M44 62h1M58 62h1M59 62h1M60 62h1M61 62h1M76 62h1M77 62h1M78 62h1M79 62h1M94 62h1M95 62h1M96 62h1M97 62h1M23 63h1M24 63h1M25 63h1M26 63h1M27 63h1M28 63h1M29 63h1M30 63h1M31 63h1M41 63h1M42 63h1M43 63h1M44 63h1M58 63h1M59 63h1M60 63h1M61 63h1M76 63h1M77 63h1M78 63h1M79 63h1M94 63h1M95 63h1M96 63h1M97 63h1M23 64h1M24 64h1M25 64h1M26 64h1M27 64h1M28 64h1M29 64h1M30 64h1M31 64h1M41 64h1M42 64h1M43 64h1M44 64h1M58 64h1M59 64h1M60 64h1M61 64h1M76 64h1M77 64h1M78 64h1M79 64h1M94 64h1M95 64h1M96 64h1M97 64h1M23 65h1M24 65h1M25 65h1M26 65h1M27 65h1M28 65h1M29 65h1M30 65h1M31 65h1M32 65h1M41 65h1M42 65h1M43 65h1M44 65h1M58 65h1M59 65h1M60 65h1M61 65h1M76 65h1M77 65h1M78 65h1M79 65h1M94 65h1M95 65h1M96 65h1M97 65h1M23 66h1M24 66h1M25 66h1M26 66h1M27 66h1M28 66h1M29 66h1M30 66h1M31 66h1M32 66h1M41 66h1M42 66h1M43 66h1M44 66h1M50 66h1M51 66h1M58 66h1M59 66h1M60 66h1M61 66h1M76 66h1M77 66h1M78 66h1M79 66h1M94 66h1M95 66h1M96 66h1M97 66h1M23 67h1M24 67h1M25 67h1M26 67h1M28 67h1M29 67h1M30 67h1M31 67h1M32 67h1M33 67h1M41 67h1M42 67h1M43 67h1M44 67h1M49 67h1M50 67h1M51 67h1M52 67h1M58 67h1M59 67h1M60 67h1M61 67h1M76 67h1M77 67h1M78 67h1M79 67h1M94 67h1M95 67h1M96 67h1M97 67h1M23 68h1M24 68h1M25 68h1M26 68h1M28 68h1M29 68h1M30 68h1M31 68h1M32 68h1M33 68h1M34 68h1M41 68h1M42 68h1M43 68h1M44 68h1M48 68h1M49 68h1M50 68h1M51 68h1M52 68h1M53 68h1M58 68h1M59 68h1M60 68h1M61 68h1M76 68h1M77 68h1M78 68h1M79 68h1M94 68h1M95 68h1M96 68h1M97 68h1M128 68h1M129 68h1M130 68h1M131 68h1M23 69h1M24 69h1M25 69h1M26 69h1M29 69h1M30 69h1M31 69h1M32 69h1M33 69h1M34 69h1M41 69h1M42 69h1M43 69h1M44 69h1M48 69h1M49 69h1M50 69h1M51 69h1M52 69h1M53 69h1M58 69h1M59 69h1M60 69h1M61 69h1M76 69h1M77 69h1M78 69h1M79 69h1M94 69h1M95 69h1M96 69h1M97 69h1M107 69h1M108 69h1M109 69h1M110 69h1M111 69h1M112 69h1M113 69h1M114 69h1M115 69h1M116 69h1M117 69h1M118 69h1M119 69h1M120 69h1M128 69h1M129 69h1M130 69h1M131 69h1M136 69h1M137 69h1M138 69h1M139 69h1M140 69h1M141 69h1M142 69h1M143 69h1M23 70h1M24 70h1M25 70h1M26 70h1M30 70h1M31 70h1M32 70h1M33 70h1M34 70h1M35 70h1M41 70h1M42 70h1M43 70h1M44 70h1M49 70h1M50 70h1M51 70h1M52 70h1M58 70h1M59 70h1M60 70h1M61 70h1M76 70h1M77 70h1M78 70h1M79 70h1M94 70h1M95 70h1M96 70h1M97 70h1M106 70h1M107 70h1M108 70h1M109 70h1M110 70h1M111 70h1M112 70h1M113 70h1M114 70h1M115 70h1M116 70h1M117 70h1M118 70h1M119 70h1M120 70h1M121 70h1M128 70h1M129 70h1M130 70h1M131 70h1M132 70h1M133 70h1M134 70h1M135 70h1M136 70h1M137 70h1M138 70h1M139 70h1M140 70h1M141 70h1M142 70h1M143 70h1M144 70h1M23 71h1M24 71h1M25 71h1M26 71h1M30 71h1M31 71h1M32 71h1M33 71h1M34 71h1M35 71h1M41 71h1M42 71h1M43 71h1M44 71h1M50 71h1M51 71h1M58 71h1M59 71h1M60 71h1M61 71h1M76 71h1M77 71h1M78 71h1M79 71h1M94 71h1M95 71h1M96 71h1M97 71h1M105 71h1M106 71h1M107 71h1M108 71h1M109 71h1M110 71h1M111 71h1M112 71h1M113 71h1M114 71h1M115 71h1M116 71h1M117 71h1M118 71h1M119 71h1M120 71h1M121 71h1M122 71h1M128 71h1M129 71h1M130 71h1M131 71h1M132 71h1M133 71h1M134 71h1M135 71h1M136 71h1M137 71h1M138 71h1M139 71h1M140 71h1M141 71h1M142 71h1M143 71h1M144 71h1M145 71h1M23 72h1M24 72h1M25 72h1M26 72h1M31 72h1M32 72h1M33 72h1M34 72h1M35 72h1M36 72h1M41 72h1M42 72h1M43 72h1M44 72h1M58 72h1M59 72h1M60 72h1M61 72h1M76 72h1M77 72h1M78 72h1M79 72h1M94 72h1M95 72h1M96 72h1M97 72h1M104 72h1M105 72h1M106 72h1M107 72h1M108 72h1M109 72h1M110 72h1M111 72h1M112 72h1M113 72h1M114 72h1M115 72h1M116 72h1M117 72h1M118 72h1M119 72h1M120 72h1M121 72h1M122 72h1M123 72h1M128 72h1M129 72h1M130 72h1M131 72h1M132 72h1M133 72h1M134 72h1M135 72h1M136 72h1M137 72h1M138 72h1M139 72h1M140 72h1M141 72h1M142 72h1M143 72h1M144 72h1M145 72h1M23 73h1M24 73h1M25 73h1M26 73h1M31 73h1M32 73h1M33 73h1M34 73h1M35 73h1M36 73h1M41 73h1M42 73h1M43 73h1M44 73h1M58 73h1M59 73h1M60 73h1M61 73h1M76 73h1M77 73h1M78 73h1M79 73h1M94 73h1M95 73h1M96 73h1M97 73h1M104 73h1M105 73h1M106 73h1M107 73h1M108 73h1M109 73h1M117 73h1M118 73h1M119 73h1M120 73h1M121 73h1M122 73h1M123 73h1M128 73h1M129 73h1M130 73h1M131 73h1M132 73h1M133 73h1M134 73h1M135 73h1M136 73h1M137 73h1M138 73h1M139 73h1M140 73h1M141 73h1M142 73h1M143 73h1M144 73h1M145 73h1M23 74h1M24 74h1M25 74h1M26 74h1M32 74h1M33 74h1M34 74h1M35 74h1M36 74h1M41 74h1M42 74h1M43 74h1M44 74h1M58 74h1M59 74h1M60 74h1M61 74h1M76 74h1M77 74h1M78 74h1M79 74h1M80 74h1M81 74h1M82 74h1M83 74h1M84 74h1M85 74h1M86 74h1M87 74h1M88 74h1M94 74h1M95 74h1M96 74h1M97 74h1M103 74h1M104 74h1M105 74h1M106 74h1M107 74h1M108 74h1M118 74h1M119 74h1M120 74h1M121 74h1M122 74h1M123 74h1M128 74h1M129 74h1M130 74h1M131 74h1M132 74h1M133 74h1M134 74h1M135 74h1M142 74h1M143 74h1M144 74h1M145 74h1M23 75h1M24 75h1M25 75h1M26 75h1M32 75h1M33 75h1M34 75h1M35 75h1M36 75h1M37 75h1M41 75h1M42 75h1M43 75h1M44 75h1M48 75h1M49 75h1M50 75h1M51 75h1M58 75h1M59 75h1M60 75h1M61 75h1M62 75h1M63 75h1M64 75h1M65 75h1M66 75h1M67 75h1M68 75h1M69 75h1M70 75h1M76 75h1M77 75h1M78 75h1M79 75h1M80 75h1M81 75h1M82 75h1M83 75h1M84 75h1M85 75h1M86 75h1M87 75h1M88 75h1M89 75h1M94 75h1M95 75h1M96 75h1M97 75h1M103 75h1M104 75h1M105 75h1M106 75h1M107 75h1M120 75h1M121 75h1M122 75h1M123 75h1M129 75h1M130 75h1M131 75h1M132 75h1M133 75h1M23 76h1M24 76h1M25 76h1M26 76h1M33 76h1M34 76h1M35 76h1M36 76h1M37 76h1M41 76h1M42 76h1M43 76h1M44 76h1M48 76h1M49 76h1M50 76h1M51 76h1M58 76h1M59 76h1M60 76h1M61 76h1M62 76h1M63 76h1M64 76h1M65 76h1M66 76h1M67 76h1M68 76h1M69 76h1M70 76h1M71 76h1M76 76h1M77 76h1M78 76h1M79 76h1M80 76h1M81 76h1M82 76h1M83 76h1M84 76h1M85 76h1M86 76h1M87 76h1M88 76h1M89 76h1M90 76h1M94 76h1M95 76h1M96 76h1M97 76h1M103 76h1M104 76h1M105 76h1M106 76h1M107 76h1M118 76h1M119 76h1M120 76h1M121 76h1M122 76h1M129 76h1M130 76h1M131 76h1M132 76h1M23 77h1M24 77h1M25 77h1M26 77h1M33 77h1M34 77h1M35 77h1M36 77h1M37 77h1M38 77h1M41 77h1M42 77h1M43 77h1M44 77h1M48 77h1M49 77h1M50 77h1M51 77h1M58 77h1M59 77h1M60 77h1M61 77h1M62 77h1M63 77h1M64 77h1M65 77h1M66 77h1M67 77h1M68 77h1M69 77h1M70 77h1M71 77h1M72 77h1M76 77h1M77 77h1M78 77h1M79 77h1M80 77h1M81 77h1M82 77h1M83 77h1M84 77h1M85 77h1M86 77h1M87 77h1M88 77h1M89 77h1M90 77h1M93 77h1M94 77h1M95 77h1M96 77h1M97 77h1M103 77h1M104 77h1M105 77h1M106 77h1M107 77h1M114 77h1M115 77h1M116 77h1M117 77h1M118 77h1M119 77h1M120 77h1M129 77h1M130 77h1M131 77h1M132 77h1M23 78h1M24 78h1M25 78h1M26 78h1M33 78h1M34 78h1M35 78h1M36 78h1M37 78h1M38 78h1M41 78h1M42 78h1M43 78h1M44 78h1M48 78h1M49 78h1M50 78h1M51 78h1M58 78h1M59 78h1M60 78h1M61 78h1M62 78h1M63 78h1M64 78h1M65 78h1M66 78h1M67 78h1M68 78h1M69 78h1M70 78h1M71 78h1M72 78h1M76 78h1M77 78h1M78 78h1M79 78h1M80 78h1M81 78h1M85 78h1M86 78h1M87 78h1M88 78h1M89 78h1M90 78h1M91 78h1M93 78h1M94 78h1M95 78h1M96 78h1M97 78h1M103 78h1M104 78h1M105 78h1M106 78h1M107 78h1M108 78h1M109 78h1M110 78h1M111 78h1M112 78h1M113 78h1M114 78h1M115 78h1M116 78h1M117 78h1M118 78h1M129 78h1M130 78h1M131 78h1M132 78h1M23 79h1M24 79h1M25 79h1M26 79h1M34 79h1M35 79h1M36 79h1M37 79h1M38 79h1M39 79h1M41 79h1M42 79h1M43 79h1M44 79h1M48 79h1M49 79h1M50 79h1M51 79h1M58 79h1M59 79h1M60 79h1M61 79h1M62 79h1M63 79h1M67 79h1M68 79h1M69 79h1M70 79h1M71 79h1M72 79h1M73 79h1M76 79h1M77 79h1M78 79h1M79 79h1M86 79h1M87 79h1M88 79h1M89 79h1M90 79h1M91 79h1M93 79h1M94 79h1M95 79h1M96 79h1M97 79h1M103 79h1M104 79h1M105 79h1M106 79h1M107 79h1M108 79h1M109 79h1M110 79h1M111 79h1M112 79h1M113 79h1M114 79h1M129 79h1M130 79h1M131 79h1M132 79h1M133 79h1M23 80h1M24 80h1M25 80h1M26 80h1M34 80h1M35 80h1M36 80h1M37 80h1M38 80h1M39 80h1M41 80h1M42 80h1M43 80h1M44 80h1M47 80h1M48 80h1M49 80h1M50 80h1M51 80h1M58 80h1M59 80h1M60 80h1M61 80h1M68 80h1M69 80h1M70 80h1M71 80h1M72 80h1M73 80h1M76 80h1M77 80h1M78 80h1M79 80h1M87 80h1M88 80h1M89 80h1M90 80h1M91 80h1M93 80h1M94 80h1M95 80h1M96 80h1M97 80h1M103 80h1M104 80h1M105 80h1M106 80h1M107 80h1M108 80h1M129 80h1M130 80h1M131 80h1M132 80h1M133 80h1M23 81h1M24 81h1M25 81h1M26 81h1M35 81h1M36 81h1M37 81h1M38 81h1M39 81h1M40 81h1M41 81h1M42 81h1M43 81h1M44 81h1M47 81h1M48 81h1M49 81h1M50 81h1M51 81h1M58 81h1M59 81h1M60 81h1M61 81h1M69 81h1M70 81h1M71 81h1M72 81h1M73 81h1M76 81h1M77 81h1M78 81h1M79 81h1M87 81h1M88 81h1M89 81h1M90 81h1M91 81h1M93 81h1M94 81h1M95 81h1M96 81h1M104 81h1M105 81h1M106 81h1M107 81h1M108 81h1M121 81h1M122 81h1M123 81h1M124 81h1M125 81h1M129 81h1M130 81h1M131 81h1M132 81h1M133 81h1M23 82h1M24 82h1M25 82h1M26 82h1M35 82h1M36 82h1M37 82h1M38 82h1M39 82h1M40 82h1M41 82h1M42 82h1M43 82h1M44 82h1M47 82h1M48 82h1M49 82h1M50 82h1M51 82h1M58 82h1M59 82h1M60 82h1M61 82h1M69 82h1M70 82h1M71 82h1M72 82h1M73 82h1M76 82h1M77 82h1M78 82h1M79 82h1M87 82h1M88 82h1M89 82h1M90 82h1M91 82h1M93 82h1M94 82h1M95 82h1M96 82h1M104 82h1M105 82h1M106 82h1M107 82h1M108 82h1M109 82h1M121 82h1M122 82h1M123 82h1M124 82h1M125 82h1M129 82h1M130 82h1M131 82h1M132 82h1M133 82h1M23 83h1M24 83h1M25 83h1M26 83h1M36 83h1M37 83h1M38 83h1M39 83h1M40 83h1M41 83h1M42 83h1M43 83h1M44 83h1M47 83h1M48 83h1M49 83h1M50 83h1M58 83h1M59 83h1M60 83h1M61 83h1M69 83h1M70 83h1M71 83h1M72 83h1M73 83h1M76 83h1M77 83h1M78 83h1M79 83h1M86 83h1M87 83h1M88 83h1M89 83h1M90 83h1M91 83h1M93 83h1M94 83h1M95 83h1M96 83h1M104 83h1M105 83h1M106 83h1M107 83h1M108 83h1M109 83h1M120 83h1M121 83h1M122 83h1M123 83h1M124 83h1M125 83h1M130 83h1M131 83h1M132 83h1M133 83h1M23 84h1M24 84h1M25 84h1M26 84h1M36 84h1M37 84h1M38 84h1M39 84h1M40 84h1M41 84h1M42 84h1M43 84h1M44 84h1M47 84h1M48 84h1M49 84h1M50 84h1M58 84h1M59 84h1M60 84h1M61 84h1M68 84h1M69 84h1M70 84h1M71 84h1M72 84h1M73 84h1M76 84h1M77 84h1M78 84h1M79 84h1M84 84h1M85 84h1M86 84h1M87 84h1M88 84h1M89 84h1M90 84h1M91 84h1M93 84h1M94 84h1M95 84h1M96 84h1M97 84h1M105 84h1M106 84h1M107 84h1M108 84h1M109 84h1M110 84h1M111 84h1M118 84h1M119 84h1M120 84h1M121 84h1M122 84h1M123 84h1M124 84h1M125 84h1M130 84h1M131 84h1M132 84h1M133 84h1M23 85h1M24 85h1M25 85h1M26 85h1M37 85h1M38 85h1M39 85h1M40 85h1M41 85h1M42 85h1M43 85h1M44 85h1M47 85h1M48 85h1M49 85h1M50 85h1M58 85h1M59 85h1M60 85h1M61 85h1M66 85h1M67 85h1M68 85h1M69 85h1M70 85h1M71 85h1M72 85h1M73 85h1M76 85h1M77 85h1M78 85h1M79 85h1M80 85h1M81 85h1M82 85h1M83 85h1M84 85h1M85 85h1M86 85h1M87 85h1M88 85h1M89 85h1M90 85h1M93 85h1M94 85h1M95 85h1M96 85h1M97 85h1M105 85h1M106 85h1M107 85h1M108 85h1M109 85h1M110 85h1M111 85h1M112 85h1M113 85h1M114 85h1M115 85h1M116 85h1M117 85h1M118 85h1M119 85h1M120 85h1M121 85h1M122 85h1M123 85h1M124 85h1M130 85h1M131 85h1M132 85h1M133 85h1M23 86h1M24 86h1M25 86h1M26 86h1M37 86h1M38 86h1M39 86h1M40 86h1M41 86h1M42 86h1M43 86h1M44 86h1M47 86h1M48 86h1M49 86h1M50 86h1M58 86h1M59 86h1M60 86h1M61 86h1M62 86h1M63 86h1M64 86h1M65 86h1M66 86h1M67 86h1M68 86h1M69 86h1M70 86h1M71 86h1M72 86h1M75 86h1M76 86h1M77 86h1M78 86h1M79 86h1M80 86h1M81 86h1M82 86h1M83 86h1M84 86h1M85 86h1M86 86h1M87 86h1M88 86h1M89 86h1M90 86h1M93 86h1M94 86h1M95 86h1M96 86h1M97 86h1M98 86h1M99 86h1M100 86h1M101 86h1M102 86h1M106 86h1M107 86h1M108 86h1M109 86h1M110 86h1M111 86h1M112 86h1M113 86h1M114 86h1M115 86h1M116 86h1M117 86h1M118 86h1M119 86h1M120 86h1M121 86h1M122 86h1M123 86h1M130 86h1M131 86h1M132 86h1M133 86h1M23 87h1M24 87h1M25 87h1M26 87h1M38 87h1M39 87h1M40 87h1M41 87h1M42 87h1M43 87h1M44 87h1M47 87h1M48 87h1M49 87h1M50 87h1M57 87h1M58 87h1M59 87h1M60 87h1M61 87h1M62 87h1M63 87h1M64 87h1M65 87h1M66 87h1M67 87h1M68 87h1M69 87h1M70 87h1M71 87h1M72 87h1M75 87h1M76 87h1M77 87h1M78 87h1M79 87h1M80 87h1M81 87h1M82 87h1M83 87h1M84 87h1M85 87h1M86 87h1M87 87h1M88 87h1M89 87h1M93 87h1M94 87h1M95 87h1M96 87h1M97 87h1M98 87h1M99 87h1M100 87h1M101 87h1M102 87h1M106 87h1M107 87h1M108 87h1M109 87h1M110 87h1M111 87h1M112 87h1M113 87h1M114 87h1M115 87h1M116 87h1M117 87h1M118 87h1M119 87h1M120 87h1M121 87h1M122 87h1M130 87h1M131 87h1M132 87h1M133 87h1M23 88h1M24 88h1M25 88h1M26 88h1M39 88h1M40 88h1M41 88h1M42 88h1M43 88h1M44 88h1M47 88h1M48 88h1M49 88h1M50 88h1M51 88h1M57 88h1M58 88h1M59 88h1M60 88h1M61 88h1M62 88h1M63 88h1M64 88h1M65 88h1M66 88h1M67 88h1M68 88h1M69 88h1M70 88h1M71 88h1M75 88h1M76 88h1M77 88h1M78 88h1M79 88h1M80 88h1M81 88h1M82 88h1M83 88h1M84 88h1M85 88h1M86 88h1M87 88h1M94 88h1M95 88h1M96 88h1M97 88h1M98 88h1M99 88h1M100 88h1M101 88h1M102 88h1M108 88h1M109 88h1M110 88h1M111 88h1M112 88h1M113 88h1M114 88h1M115 88h1M116 88h1M117 88h1M118 88h1M119 88h1M120 88h1M130 88h1M131 88h1M132 88h1M133 88h1M23 89h1M24 89h1M25 89h1M26 89h1M40 89h1M41 89h1M42 89h1M43 89h1M44 89h1M47 89h1M48 89h1M49 89h1M50 89h1M51 89h1M52 89h1M53 89h1M54 89h1M55 89h1M57 89h1M58 89h1M59 89h1M60 89h1M61 89h1M62 89h1M63 89h1M64 89h1M65 89h1M66 89h1M67 89h1M68 89h1M69 89h1M75 89h1M76 89h1M77 89h1M78 89h1M79 89h1M80 89h1M81 89h1M82 89h1M83 89h1M84 89h1M85 89h1M94 89h1M95 89h1M96 89h1M97 89h1M98 89h1M99 89h1M100 89h1M101 89h1M102 89h1M23 90h1M24 90h1M25 90h1M26 90h1M40 90h1M41 90h1M42 90h1M43 90h1M44 90h1M47 90h1M48 90h1M49 90h1M50 90h1M51 90h1M52 90h1M53 90h1M54 90h1M55 90h1M57 90h1M58 90h1M59 90h1M60 90h1M61 90h1M62 90h1M63 90h1M64 90h1M65 90h1M66 90h1M67 90h1M75 90h1M76 90h1M77 90h1M78 90h1M95 90h1M96 90h1M97 90h1M98 90h1M99 90h1M100 90h1M101 90h1M23 91h1M24 91h1M25 91h1M26 91h1M41 91h1M42 91h1M43 91h1M44 91h1M47 91h1M48 91h1M49 91h1M50 91h1M51 91h1M52 91h1M53 91h1M54 91h1M55 91h1M57 91h1M58 91h1M59 91h1M60 91h1M75 91h1M76 91h1M77 91h1M78 91h1M23 92h1M24 92h1M25 92h1M26 92h1M41 92h1M42 92h1M43 92h1M44 92h1M48 92h1M49 92h1M50 92h1M51 92h1M52 92h1M53 92h1M54 92h1M55 92h1M57 92h1M58 92h1M59 92h1M60 92h1M23 93h1M24 93h1M25 93h1M26 93h1M48 93h1M49 93h1M50 93h1M51 93h1M52 93h1M53 93h1M54 93h1" />
<path stroke="#000000" d="M13 7h1M13 8h1M13 9h1M13 10h1M13 11h1M18 11h1M19 11h1M13 12h1M20 12h1M21 12h1M13 13h1M22 13h1M23 13h1M13 14h1M13 15h1M24 15h1M13 16h1M13 17h1M25 17h1M26 17h1M13 18h1M13 19h1M27 19h1M13 20h1M82 20h1M13 21h1M68 21h1M73 21h1M82 21h1M13 22h1M28 22h1M36 22h1M41 22h1M69 22h1M72 22h1M82 22h1M13 23h1M37 23h1M40 23h1M70 23h1M71 23h1M81 23h1M13 24h1M38 24h1M39 24h1M81 24h1M13 25h1M78 25h1M13 26h1M76 26h1M13 27h1M50 27h1M67 27h1M76 27h1M13 28h1M35 28h1M48 28h1M67 28h1M76 28h1M89 28h1M90 28h1M91 28h1M92 28h1M13 29h1M35 29h1M67 29h1M76 29h1M86 29h1M87 29h1M13 30h1M35 30h1M47 30h1M67 30h1M77 30h1M78 30h1M79 30h1M80 30h1M13 31h1M35 31h1M47 31h1M55 31h1M56 31h1M66 31h1M80 31h1M85 31h1M13 32h1M34 32h1M46 32h1M53 32h1M54 32h1M66 32h1M80 32h1M13 33h1M34 33h1M46 33h1M52 33h1M57 33h1M66 33h1M79 33h1M13 34h1M32 34h1M34 34h1M46 34h1M57 34h1M66 34h1M71 34h1M79 34h1M13 35h1M34 35h1M39 35h1M46 35h1M51 35h1M57 35h1M66 35h1M79 35h1M13 36h1M34 36h1M46 36h1M66 36h1M79 36h1M84 36h1M13 37h1M31 37h1M34 37h1M46 37h1M58 37h1M66 37h1M79 37h1M13 38h1M34 38h1M46 38h1M56 38h1M66 38h1M79 38h1M13 39h1M34 39h1M46 39h1M54 39h1M66 39h1M79 39h1M13 40h1M29 40h1M30 40h1M34 40h1M46 40h1M66 40h1M79 40h1M13 41h1M34 41h1M46 41h1M66 41h1M79 41h1M13 42h1M27 42h1M28 42h1M34 42h1M47 42h1M66 42h1M79 42h1M13 43h1M34 43h1M47 43h1M67 43h1M80 43h1M13 44h1M25 44h1M26 44h1M35 44h1M48 44h1M49 44h1M50 44h1M51 44h1M52 44h1M53 44h1M54 44h1M55 44h1M56 44h1M57 44h1M67 44h1M75 44h1M81 44h1M89 44h1M13 45h1M24 45h1M35 45h1M43 45h1M57 45h1M68 45h1M69 45h1M70 45h1M71 45h1M72 45h1M73 45h1M74 45h1M82 45h1M83 45h1M84 45h1M85 45h1M86 45h1M87 45h1M88 45h1M138 45h1M141 45h1M13 46h1M23 46h1M36 46h1M37 46h1M38 46h1M39 46h1M40 46h1M41 46h1M42 46h1M57 46h1M13 47h1M22 47h1M56 47h1M136 47h1M14 48h1M15 48h1M16 48h1M17 48h1M18 48h1M19 48h1M20 48h1M21 48h1M55 48h1M62 48h1M133 48h1M136 48h1M43 49h1M53 49h1M54 49h1M62 49h1M133 49h1M137 49h1M138 49h1M139 49h1M140 49h1M141 49h1M142 49h1M43 50h1M49 50h1M50 50h1M51 50h1M52 50h1M133 50h1M43 51h1M61 51h1M133 51h1M43 52h1M60 52h1M134 52h1M144 52h1M43 53h1M59 53h1M135 53h1M136 53h1M137 53h1M139 53h1M141 53h1M142 53h1M143 53h1M43 54h1M56 54h1M57 54h1M58 54h1M137 54h1M139 54h1M141 54h1M44 55h1M45 55h1M46 55h1M47 55h1M48 55h1M49 55h1M50 55h1M51 55h1M52 55h1M53 55h1M54 55h1M55 55h1M139 55h1M22 59h1M75 59h1M92 59h1M136 59h1M137 59h1M138 59h1M140 59h1M141 59h1M142 59h1M22 60h1M40 60h1M57 60h1M75 60h1M92 60h1M22 61h1M40 61h1M57 61h1M75 61h1M92 61h1M22 62h1M40 62h1M57 62h1M75 62h1M93 62h1M22 63h1M40 63h1M57 63h1M75 63h1M93 63h1M22 64h1M40 64h1M57 64h1M75 64h1M93 64h1M22 65h1M40 65h1M57 65h1M75 65h1M93 65h1M22 66h1M40 66h1M57 66h1M75 66h1M93 66h1M22 67h1M27 67h1M40 67h1M57 67h1M75 67h1M93 67h1M22 68h1M27 68h1M40 68h1M57 68h1M75 68h1M93 68h1M22 69h1M28 69h1M40 69h1M57 69h1M75 69h1M93 69h1M127 69h1M22 70h1M29 70h1M40 70h1M48 70h1M53 70h1M57 70h1M75 70h1M93 70h1M105 70h1M127 70h1M22 71h1M29 71h1M40 71h1M49 71h1M52 71h1M57 71h1M75 71h1M93 71h1M104 71h1M127 71h1M22 72h1M30 72h1M40 72h1M50 72h1M51 72h1M57 72h1M75 72h1M93 72h1M103 72h1M127 72h1M22 73h1M30 73h1M40 73h1M57 73h1M75 73h1M93 73h1M103 73h1M110 73h1M111 73h1M112 73h1M113 73h1M114 73h1M115 73h1M116 73h1M127 73h1M22 74h1M31 74h1M40 74h1M57 74h1M75 74h1M93 74h1M102 74h1M109 74h1M117 74h1M127 74h1M136 74h1M137 74h1M138 74h1M139 74h1M140 74h1M141 74h1M22 75h1M31 75h1M40 75h1M57 75h1M75 75h1M93 75h1M102 75h1M108 75h1M118 75h1M119 75h1M128 75h1M134 75h1M135 75h1M142 75h1M143 75h1M144 75h1M22 76h1M32 76h1M40 76h1M47 76h1M57 76h1M75 76h1M93 76h1M102 76h1M128 76h1M133 76h1M22 77h1M32 77h1M40 77h1M47 77h1M57 77h1M75 77h1M92 77h1M102 77h1M121 77h1M122 77h1M128 77h1M22 78h1M32 78h1M40 78h1M47 78h1M57 78h1M75 78h1M82 78h1M83 78h1M84 78h1M92 78h1M102 78h1M119 78h1M120 78h1M128 78h1M22 79h1M33 79h1M40 79h1M47 79h1M57 79h1M64 79h1M65 79h1M66 79h1M75 79h1M80 79h1M81 79h1M85 79h1M92 79h1M102 79h1M115 79h1M116 79h1M117 79h1M118 79h1M128 79h1M22 80h1M33 80h1M40 80h1M46 80h1M57 80h1M62 80h1M63 80h1M67 80h1M75 80h1M86 80h1M92 80h1M102 80h1M109 80h1M110 80h1M111 80h1M112 80h1M113 80h1M114 80h1M128 80h1M22 81h1M34 81h1M46 81h1M57 81h1M68 81h1M75 81h1M86 81h1M92 81h1M97 81h1M103 81h1M120 81h1M128 81h1M22 82h1M34 82h1M46 82h1M57 82h1M68 82h1M75 82h1M86 82h1M92 82h1M103 82h1M120 82h1M128 82h1M22 83h1M35 83h1M46 83h1M51 83h1M57 83h1M68 83h1M75 83h1M85 83h1M92 83h1M103 83h1M119 83h1M129 83h1M22 84h1M35 84h1M46 84h1M57 84h1M67 84h1M75 84h1M83 84h1M92 84h1M104 84h1M117 84h1M129 84h1M22 85h1M36 85h1M46 85h1M57 85h1M65 85h1M75 85h1M91 85h1M92 85h1M104 85h1M129 85h1M22 86h1M36 86h1M46 86h1M57 86h1M73 86h1M74 86h1M92 86h1M105 86h1M129 86h1M22 87h1M37 87h1M46 87h1M56 87h1M74 87h1M90 87h1M92 87h1M105 87h1M129 87h1M22 88h1M38 88h1M46 88h1M56 88h1M72 88h1M74 88h1M88 88h1M89 88h1M93 88h1M106 88h1M107 88h1M129 88h1M22 89h1M39 89h1M46 89h1M56 89h1M70 89h1M71 89h1M74 89h1M86 89h1M87 89h1M93 89h1M108 89h1M109 89h1M110 89h1M111 89h1M112 89h1M113 89h1M114 89h1M115 89h1M116 89h1M117 89h1M118 89h1M119 89h1M130 89h1M131 89h1M132 89h1M133 89h1M22 90h1M39 90h1M46 90h1M56 90h1M68 90h1M69 90h1M74 90h1M79 90h1M80 90h1M81 90h1M82 90h1M83 90h1M84 90h1M85 90h1M94 90h1M102 90h1M22 91h1M40 91h1M46 91h1M56 91h1M61 91h1M62 91h1M63 91h1M64 91h1M65 91h1M66 91h1M67 91h1M74 91h1M95 91h1M96 91h1M97 91h1M98 91h1M99 91h1M100 91h1M101 91h1M22 92h1M40 92h1M47 92h1M56 92h1M75 92h1M76 92h1M77 92h1M78 92h1M22 93h1M41 93h1M42 93h1M43 93h1M47 93h1M55 93h1M57 93h1M58 93h1M59 93h1M60 93h1M23 94h1M24 94h1M25 94h1M48 94h1M49 94h1M50 94h1M51 94h1M52 94h1M53 94h1M54 94h1" />
<path stroke="#ffffff" d="M6 17h1M138 44h1M141 44h1M137 45h1M139 45h1M140 45h1M142 45h1" />
</svg>